<?xml version="1.0" standalone="no"?><!DOCTYPE svg PUBLIC "-//W3C//DTD SVG 1.1//EN" "http://www.w3.org/Graphics/SVG/1.1/DTD/svg11.dtd"><svg t="1656472135413" class="icon" viewBox="0 0 1024 1024" version="1.1" xmlns="http://www.w3.org/2000/svg" p-id="2257" xmlns:xlink="http://www.w3.org/1999/xlink" width="200" height="200"><defs><style type="text/css">@font-face { font-family: feedback-iconfont; src: url("//at.alicdn.com/t/font_1031158_u69w8yhxdu.woff2?t=1630033759944") format("woff2"), url("//at.alicdn.com/t/font_1031158_u69w8yhxdu.woff?t=1630033759944") format("woff"), url("//at.alicdn.com/t/font_1031158_u69w8yhxdu.ttf?t=1630033759944") format("truetype"); }
</style></defs><path d="M404.053333 411.434667l-29.909333-250.666667-0.085333-3.114667c0-37.930667 30.72-68.693333 68.693333-68.693333 34.218667 0 65.92 17.92 84.352 48.426667l3.712 6.826666 125.653333 259.84 168.832-4.949333a110.933333 110.933333 0 0 1 114.005334 107.946667l0.042666 2.816a111.018667 111.018667 0 0 1-111.786666 110.805333l-169.088-4.949333-127.658667 264.021333a97.834667 97.834667 0 0 1-88.106667 55.253333c-37.930667 0-68.650667-30.72-68.650666-69.589333l0.298666-5.034667 30.165334-252.074666-90.965334-2.688-11.52 31.402666a83.029333 83.029333 0 0 1-77.952 54.528c-37.376 0-67.669333-30.293333-67.669333-67.712v-32.426666l-6.570667-1.365334a81.92 81.92 0 0 1 0-160.341333l6.613334-1.365333v-32.426667c0-34.261333 25.472-62.976 61.184-67.370667l6.442666-0.341333c31.786667 0 60.714667 18.133333 75.306667 48.085333l2.688 6.4 11.52 31.402667 90.453333-2.645333z m38.656-258.432c-2.56 0-4.650667 2.090667-4.693333 3.669333l37.845333 316.672-206.506666 6.058667-26.794667-73.173334-1.365333-3.370666c-3.2-6.485333-9.813333-10.666667-15.104-10.709334l-2.474667 0.085334a3.669333 3.669333 0 0 0-3.2 3.626666l0.042667 84.48-57.6 12.032a17.877333 17.877333 0 0 0 0 35.029334l57.6 11.946666v84.48c0 2.048 1.621333 3.712 3.626666 3.712a19.029333 19.029333 0 0 0 17.877334-12.501333l27.306666-74.752 207.104 6.058667-38.272 318.762666v1.28c0 2.56 2.048 4.608 4.608 4.608a33.834667 33.834667 0 0 0 30.464-19.114666l145.706667-301.354667 209.664 6.144c25.856 0 46.805333-20.949333 46.805333-46.336v-1.834667a46.805333 46.805333 0 0 0-48.213333-45.397333l-210.261333 6.144-142.976-295.765333-2.261334-4.224a33.834667 33.834667 0 0 0-28.928-16.256z" p-id="2258"></path></svg>